HIERARCHY
ROOT Hips
{
    OFFSET 0.000000 0.000000 0.000000
    CHANNELS 6 Xposition Yposition Zposition Zrotation Xrotation Yrotation
    JOINT Spine
    {
        OFFSET -0.000000 7.305679 0.000000
        CHANNELS 3 Zrotation Xrotation Yrotation
        JOINT Spine1
        {
            OFFSET -0.000000 20.356625 0.000000
            CHANNELS 3 Zrotation Xrotation Yrotation
            JOINT Neck
            {
                OFFSET -0.000000 22.138498 0.000000
                CHANNELS 3 Zrotation Xrotation Yrotation
                JOINT Head
                {
                    OFFSET -0.000000 13.809516 1.781873
                    CHANNELS 3 Zrotation Xrotation Yrotation
                    End Site
                    {
                        OFFSET -0.000000 17.818729 0.000000
                    }
                }
            }
            JOINT LeftShoulder
            {
                OFFSET 3.599131 17.989975 0.023592
                CHANNELS 3 Zrotation Xrotation Yrotation
                JOINT LeftArm
                {
                    OFFSET 12.560995 0.000000 0.000000
                    CHANNELS 3 Zrotation Xrotation Yrotation
                    JOINT LeftForeArm
                    {
                        OFFSET 22.903347 0.000000 0.000000
                        CHANNELS 3 Zrotation Xrotation Yrotation
                        JOINT LeftHand
                        {
                            OFFSET 21.865294 0.000000 0.000000
                            CHANNELS 3 Zrotation Xrotation Yrotation
                            JOINT LeftHandThumb1
                            {
                                OFFSET 1.853706 -2.106484 2.949078
                                CHANNELS 3 Zrotation Xrotation Yrotation
                                JOINT LeftHandThumb2
                                {
                                    OFFSET 2.049154 0.000000 1.336405
                                    CHANNELS 3 Zrotation Xrotation Yrotation
                                    JOINT LeftHandThumb3
                                    {
                                        OFFSET 2.672809 0.000000 0.000000
                                        CHANNELS 3 Zrotation Xrotation Yrotation
                                        End Site
                                        {
                                            OFFSET 2.381303 0.000000 0.000000
                                        }
                                    }
                                }
                            }
                            JOINT LeftHandIndex1
                            {
                                OFFSET 7.583345 0.000000 2.949078
                                CHANNELS 3 Zrotation Xrotation Yrotation
                                JOINT LeftHandIndex2
                                {
                                    OFFSET 4.454682 0.000000 0.000000
                                    CHANNELS 3 Zrotation Xrotation Yrotation
                                    JOINT LeftHandIndex3
                                    {
                                        OFFSET 2.227341 0.000000 0.000000
                                        CHANNELS 3 Zrotation Xrotation Yrotation
                                        End Site
                                        {
                                            OFFSET 1.984419 0.000000 0.000000
                                        }
                                    }
                                }
                            }
                            JOINT LeftHandMiddle1
                            {
                                OFFSET 7.583345 0.000000 0.977409
                                CHANNELS 3 Zrotation Xrotation Yrotation
                                JOINT LeftHandMiddle2
                                {
                                    OFFSET 4.900151 0.000000 0.000000
                                    CHANNELS 3 Zrotation Xrotation Yrotation
                                    JOINT LeftHandMiddle3
                                    {
                                        OFFSET 2.672809 0.000000 0.000000
                                        CHANNELS 3 Zrotation Xrotation Yrotation
                                        End Site
                                        {
                                            OFFSET 2.381303 0.000000 0.000000
                                        }
                                    }
                                }
                            }
                            JOINT LeftHandRing1
                            {
                                OFFSET 7.162047 0.000000 -0.977409
                                CHANNELS 3 Zrotation Xrotation Yrotation
                                JOINT LeftHandRing2
                                {
                                    OFFSET 4.454682 0.000000 0.000000
                                    CHANNELS 3 Zrotation Xrotation Yrotation
                                    JOINT LeftHandRing3
                                    {
                                        OFFSET 2.227341 0.000000 0.000000
                                        CHANNELS 3 Zrotation Xrotation Yrotation
                                        End Site
                                        {
                                            OFFSET 1.984419 0.000000 0.000000
                                        }
                                    }
                                }
                            }
                            JOINT LeftHandPinky1
                            {
                                OFFSET 6.740750 0.000000 -2.949078
                                CHANNELS 3 Zrotation Xrotation Yrotation
                                JOINT LeftHandPinky2
                                {
                                    OFFSET 3.563746 0.000000 0.000000
                                    CHANNELS 3 Zrotation Xrotation Yrotation
                                    JOINT LeftHandPinky3
                                    {
                                        OFFSET 1.781873 0.000000 0.000000
                                        CHANNELS 3 Zrotation Xrotation Yrotation
                                        End Site
                                        {
                                            OFFSET 1.587536 0.000000 0.000000
                                        }
                                    }
                                }
                            }
                        }
                    }
                }
            }
            JOINT RightShoulder
            {
                OFFSET -3.506995 17.989975 0.023592
                CHANNELS 3 Zrotation Xrotation Yrotation
                JOINT RightArm
                {
                    OFFSET -12.560995 0.000000 0.000000
                    CHANNELS 3 Zrotation Xrotation Yrotation
                    JOINT RightForeArm
                    {
                        OFFSET -22.903347 0.000000 0.000000
                        CHANNELS 3 Zrotation Xrotation Yrotation
                        JOINT RightHand
                        {
                            OFFSET -21.865294 0.000000 0.000000
                            CHANNELS 3 Zrotation Xrotation Yrotation
                            JOINT RightHandThumb1
                            {
                                OFFSET -1.853706 -2.106484 2.949078
                                CHANNELS 3 Zrotation Xrotation Yrotation
                                JOINT RightHandThumb2
                                {
                                    OFFSET -2.049154 0.000000 1.336405
                                    CHANNELS 3 Zrotation Xrotation Yrotation
                                    JOINT RightHandThumb3
                                    {
                                        OFFSET -2.672809 0.000000 0.000000
                                        CHANNELS 3 Zrotation Xrotation Yrotation
                                        End Site
                                        {
                                            OFFSET -2.381303 0.000000 0.000000
                                        }
                                    }
                                }
                            }
                            JOINT RightHandIndex1
                            {
                                OFFSET -7.583345 0.000000 2.949078
                                CHANNELS 3 Zrotation Xrotation Yrotation
                                JOINT RightHandIndex2
                                {
                                    OFFSET -4.454682 0.000000 0.000000
                                    CHANNELS 3 Zrotation Xrotation Yrotation
                                    JOINT RightHandIndex3
                                    {
                                        OFFSET -2.227341 0.000000 0.000000
                                        CHANNELS 3 Zrotation Xrotation Yrotation
                                        End Site
                                        {
                                            OFFSET -1.984419 0.000000 0.000000
                                        }
                                    }
                                }
                            }
                            JOINT RightHandMiddle1
                            {
                                OFFSET -7.583345 0.000000 0.977409
                                CHANNELS 3 Zrotation Xrotation Yrotation
                                JOINT RightHandMiddle2
                                {
                                    OFFSET -4.900151 0.000000 0.000000
                                    CHANNELS 3 Zrotation Xrotation Yrotation
                                    JOINT RightHandMiddle3
                                    {
                                        OFFSET -2.672809 0.000000 0.000000
                                        CHANNELS 3 Zrotation Xrotation Yrotation
                                        End Site
                                        {
                                            OFFSET -2.381303 0.000000 0.000000
                                        }
                                    }
                                }
                            }
                            JOINT RightHandRing1
                            {
                                OFFSET -7.162047 0.000000 -0.977409
                                CHANNELS 3 Zrotation Xrotation Yrotation
                                JOINT RightHandRing2
                                {
                                    OFFSET -4.454682 0.000000 0.000000
                                    CHANNELS 3 Zrotation Xrotation Yrotation
                                    JOINT RightHandRing3
                                    {
                                        OFFSET -2.227341 0.000000 0.000000
                                        CHANNELS 3 Zrotation Xrotation Yrotation
                                        End Site
                                        {
                                            OFFSET -1.984419 0.000000 0.000000
                                        }
                                    }
                                }
                            }
                            JOINT RightHandPinky1
                            {
                                OFFSET -6.740750 0.000000 -2.949078
                                CHANNELS 3 Zrotation Xrotation Yrotation
                                JOINT RightHandPinky2
                                {
                                    OFFSET -3.563746 0.000000 0.000000
                                    CHANNELS 3 Zrotation Xrotation Yrotation
                                    JOINT RightHandPinky3
                                    {
                                        OFFSET -1.781873 0.000000 0.000000
                                        CHANNELS 3 Zrotation Xrotation Yrotation
                                        End Site
                                        {
                                            OFFSET -1.587536 0.000000 0.000000
                                        }
                                    }
                                }
                            }
                        }
                    }
                }
            }
        }
    }
    JOINT LeftUpLeg
    {
        OFFSET 8.909365 0.000000 0.000000
        CHANNELS 3 Zrotation Xrotation Yrotation
        JOINT LeftLeg
        {
            OFFSET -0.000000 -38.765560 0.000000
            CHANNELS 3 Zrotation Xrotation Yrotation
            JOINT LeftFoot
            {
                OFFSET -0.000000 -35.244961 0.000000
                CHANNELS 3 Zrotation Xrotation Yrotation
                JOINT LeftToeBase
                {
                    OFFSET -0.000000 -5.791087 13.364048
                    CHANNELS 3 Zrotation Xrotation Yrotation
                    End Site
                    {
                        OFFSET -0.000000 0.000000 3.563746
                    }
                }
            }
        }
    }
    JOINT RightUpLeg
    {
        OFFSET -8.909365 0.000000 0.000000
        CHANNELS 3 Zrotation Xrotation Yrotation
        JOINT RightLeg
        {
            OFFSET -0.000000 -38.765560 0.000000
            CHANNELS 3 Zrotation Xrotation Yrotation
            JOINT RightFoot
            {
                OFFSET -0.000000 -35.244961 0.000000
                CHANNELS 3 Zrotation Xrotation Yrotation
                JOINT RightToeBase
                {
                    OFFSET -0.000000 -5.791087 13.364048
                    CHANNELS 3 Zrotation Xrotation Yrotation
                    End Site
                    {
                        OFFSET -0.000000 0.000000 3.563746
                    }
                }
            }
        }
    }
}
MOTION
Frames:    4
Frame Time:    0.008333
-1.371374    81.740837    105.445374    0.330741    1.896302    4.094223    -1.872238    -0.460078    -1.397106    0.329211    0.655887    -0.464303    1.540473    2.375881    -1.800701    4.128550    4.957634    -2.330164    1.287948    3.319025    -7.314676    -84.358963    24.849365    -3.663013    19.378597    -8.708719    -14.701481    -2.837075    -28.465094    6.930532    -0.713659    1.519869    0.949644    -0.000000    0.000000    1.419368    -0.000000    0.000000    2.838736    -21.906374    4.659770    -11.421322    -44.745224    0.000000    0.000000    -22.372610    0.000000    0.000000    -29.144455    0.420032    -3.099474    -58.319111    0.000000    0.000000    -29.159550    0.000000    0.000000    -35.716694    -4.789241    4.649908    -71.892998    0.000000    0.000000    -35.946495    0.000000    0.000000    -41.773407    -11.001993    12.059704    -85.878204    0.000000    0.000000    -42.939102    0.000000    0.000000    -3.341630    0.133173    -1.994474    89.008392    41.359547    -3.353825    -11.773540    -22.566425    2.446397    6.939232    -33.830780    -30.096172    3.162675    -1.881962    5.224946    0.000000    0.000000    0.000000    0.000000    0.000000    0.000000    25.719065    0.000000    -0.000000    51.438129    0.000000    -0.000000    25.719065    0.000000    -0.000000    36.015930    -1.530893    -1.452138    70.763542    0.000000    -0.000000    36.044762    0.000000    -0.000000    46.283497    -3.296366    -2.608604    90.088951    0.000000    -0.000000    46.370461    0.000000    -0.000000    56.849174    -5.300418    -3.452880    110.000000    0.000000    -0.000000    57.009048    0.000000    -0.000000    -0.761375    -0.999894    -5.477479    0.420437    0.012859    8.876794    -2.333512    -0.182757    -9.797598    0.299880    1.054208    -0.605619    2.838310    -4.615822    1.899333    0.660411    12.379181    -8.922126    -1.727316    -10.303718    2.372969    0.665038    -0.893037    -1.143439    
-1.365516    81.742828    105.461563    0.337937    1.898199    4.038529    -1.885842    -0.456727    -1.387511    0.358794    0.642644    -0.461187    1.536413    2.352474    -1.937908    4.084699    4.858979    -2.461902    1.264240    3.402130    -7.262316    -84.460899    24.790953    -3.563135    19.251631    -8.496345    -14.442982    -2.713925    -28.353380    7.064560    -0.716948    1.504276    0.926410    -0.000000    0.000000    1.393285    -0.000000    0.000000    2.786570    -21.992584    4.622813    -11.285467    -44.899166    0.000000    0.000000    -22.449583    0.000000    0.000000    -29.199587    0.382428    -3.008537    -58.428341    0.000000    0.000000    -29.214170    0.000000    0.000000    -35.745258    -4.818225    4.699214    -71.957512    0.000000    0.000000    -35.978764    0.000000    0.000000    -41.780342    -11.014330    12.069815    -85.896675    0.000000    0.000000    -42.948341    0.000000    0.000000    -3.324990    0.133976    -1.999831    89.034859    41.312328    -3.374107    -11.691101    -22.638958    2.335804    6.577760    -34.025021    -29.824335    3.101846    -1.783036    5.018302    0.000000    0.000000    0.000000    0.000000    0.000000    0.000000    25.406506    0.000000    -0.000000    50.813011    0.000000    -0.000000    25.406506    0.000000    -0.000000    35.716564    -1.544967    -1.480141    70.344711    0.000000    -0.000000    35.746223    0.000000    -0.000000    45.996326    -3.329545    -2.661291    89.876419    0.000000    -0.000000    46.085930    0.000000    -0.000000    56.573895    -5.357726    -3.526660    110.000000    0.000000    -0.000000    56.738960    0.000000    -0.000000    -0.779181    -1.008893    -5.426606    0.431240    0.068729    8.826997    -2.336980    -0.231063    -9.745335    0.300555    1.051293    -0.607633    2.826324    -4.606135    1.874333    0.653109    12.374198    -8.873619    -1.719739    -10.306214    2.407043    0.664239    -0.893969    -1.142279    
-1.359477    81.744858    105.477669    0.345187    1.900986    3.982024    -1.898692    -0.453418    -1.377956    0.387352    0.628065    -0.458038    1.532622    2.328997    -2.073714    4.040721    4.760539    -2.592184    1.243721    3.479780    -7.210363    -84.567162    24.733200    -3.460165    19.118402    -8.279109    -14.173209    -2.587145    -28.241671    7.204085    -0.719273    1.487957    0.903480    -0.000000    0.000000    1.367245    -0.000000    0.000000    2.734490    -22.075226    4.584379    -11.149042    -45.045822    0.000000    0.000000    -22.522911    0.000000    0.000000    -29.250788    0.346364    -2.920080    -58.529804    0.000000    0.000000    -29.264904    0.000000    0.000000    -35.770168    -4.842347    4.743347    -72.013779    0.000000    0.000000    -36.006893    0.000000    0.000000    -41.784554    -11.018210    12.072158    -85.906372    0.000000    0.000000    -42.953186    0.000000    0.000000    -3.308271    0.134341    -2.004458    89.065201    41.268028    -3.397860    -11.609250    -22.719933    2.223929    6.212458    -34.222351    -29.540630    3.040355    -1.683026    4.809603    0.000000    0.000000    0.000000    0.000000    0.000000    0.000000    25.093349    0.000000    -0.000000    50.186699    0.000000    -0.000000    25.093349    0.000000    -0.000000    35.413883    -1.558469    -1.508318    69.925095    0.000000    -0.000000    35.444378    0.000000    -0.000000    45.703152    -3.361578    -2.714504    89.663483    0.000000    -0.000000    45.795399    0.000000    -0.000000    56.289761    -5.413334    -3.601521    110.000000    0.000000    -0.000000    56.460083    0.000000    -0.000000    -0.797161    -1.018586    -5.375676    0.441988    0.124173    8.779296    -2.340611    -0.279282    -9.694425    0.301232    1.048736    -0.609607    2.814300    -4.596952    1.851072    0.645667    12.368181    -8.825222    -1.712504    -10.307930    2.440429    0.663591    -0.894975    -1.141367    
-1.353086    81.746933    105.493675    0.352521    1.905244    3.924010    -1.910015    -0.450026    -1.368388    0.413814    0.610992    -0.454974    1.528930    2.304280    -2.206700    3.996980    4.664541    -2.719750    1.215159    3.572484    -7.160800    -84.652496    24.676157    -3.372735    18.973888    -8.055604    -13.890521    -2.449150    -28.132051    7.360406    -0.720303    1.471516    0.882017    -0.000000    0.000000    1.343428    -0.000000    0.000000    2.686856    -22.159029    4.545371    -11.011586    -45.194778    0.000000    0.000000    -22.597389    0.000000    0.000000    -29.302420    0.313719    -2.836178    -58.632248    0.000000    0.000000    -29.316124    0.000000    0.000000    -35.795776    -4.858437    4.777819    -72.069710    0.000000    0.000000    -36.034847    0.000000    0.000000    -41.790737    -11.008897    12.059830    -85.914360    0.000000    0.000000    -42.957184    0.000000    0.000000    -3.291608    0.133744    -2.007965    89.102982    41.228905    -3.428160    -11.527826    -22.815384    2.110736    5.837706    -34.423840    -29.236658    2.976569    -1.580834    4.595847    0.000000    0.000000    0.000000    0.000000    0.000000    0.000000    24.777050    0.000000    -0.000000    49.554100    0.000000    -0.000000    24.777050    0.000000    -0.000000    35.102505    -1.570760    -1.536498    69.501236    0.000000    -0.000000    35.133808    0.000000    -0.000000    45.395683    -3.391097    -2.768108    89.448395    0.000000    -0.000000    45.490570    0.000000    -0.000000    55.985577    -5.465103    -3.677612    110.000000    0.000000    -0.000000    56.161160    0.000000    -0.000000    -0.815522    -1.029184    -5.325075    0.452761    0.178597    8.735509    -2.343888    -0.327044    -9.645627    0.301861    1.046228    -0.611461    2.802392    -4.588240    1.830758    0.637538    12.359818    -8.777235    -1.705075    -10.308270    2.473104    0.663095    -0.895929    -1.140689    
